<?xml version="1.0" encoding="utf-8"?>
<!-- Generator: Adobe Illustrator 24.0.0, SVG Export Plug-In . SVG Version: 6.00 Build 0)  -->
<svg version="1.1" id="Ebene_1" xmlns="http://www.w3.org/2000/svg" xmlns:xlink="http://www.w3.org/1999/xlink" x="0px" y="0px"
	 viewBox="0 0 1080 1080" style="enable-background:new 0 0 1080 1080;" xml:space="preserve">
<style type="text/css">
	.st0{fill:#033259;}
	.st1{display:none;fill:none;stroke:#FFFFFF;stroke-miterlimit:10;}
	.st2{display:none;fill:#FFFFFF;}
	.st3{fill:#FFFFFF;}
</style>
<circle class="st0" cx="548.07" cy="540" r="501.31"/>
<circle class="st1" cx="547.43" cy="539.75" r="449.76"/>
<path class="st2" d="M679.58,285.95h88.33V147.12H658.21h-22.68c0,0-83.22-2.06-136.28,66.89c0,0-36.13,34.07-36.69,133.83h-0.03
	v104.13H331.7v146.06h130.9v381h150.84V599.39H615v-1.36h128.42l17.93-146.06H613.44V347.84h-0.04
	C613.77,336.21,618.95,284.91,679.58,285.95z"/>
<g>
	<g>
		<g>
			<path class="st3" d="M698.84,152.21H399.87c-132.57,0-240.02,107.46-240.02,240.04v298.94c0,132.54,107.45,239.98,240.02,239.98
				h298.96c132.56,0,240-107.45,240-239.98V392.25C938.84,259.67,831.4,152.21,698.84,152.21z M864.07,662.49
				c0,107.14-86.85,193.93-193.92,193.93H428.56c-107.12,0-193.95-86.8-193.95-193.93V420.9c0-107.07,86.83-193.93,193.95-193.93
				h241.59c107.06,0,193.92,86.87,193.92,193.93V662.49z"/>
			<path class="st3" d="M559.8,337.88c-113.35,0-205.21,91.83-205.21,205.17c0,113.28,91.86,205.18,205.21,205.18
				c113.31,0,205.17-91.9,205.17-205.18C764.97,429.71,673.1,337.88,559.8,337.88z M559.8,666.49
				c-68.23,0-123.47-55.29-123.47-123.44c0-68.22,55.24-123.45,123.47-123.45c68.16,0,123.43,55.23,123.43,123.45
				C683.23,611.2,627.95,666.49,559.8,666.49z"/>
			<path class="st3" d="M802.95,334.68c0,28.82-23.4,52.17-52.19,52.17c-28.81,0-52.15-23.35-52.15-52.17
				c0-28.8,23.34-52.2,52.15-52.2C779.54,282.48,802.95,305.88,802.95,334.68z"/>
		</g>
	</g>
</g>
</svg>
